<svg id="Camada_1" data-name="Camada 1" xmlns="http://www.w3.org/2000/svg" viewBox="0 0 1805.06 649.36"><defs><style>.cls-1{isolation:isolate;}.cls-2{fill:#fafafa;}</style></defs><g id="lower"><g class="cls-1"><path class="cls-2" d="M664.06,778.55,491,301.69h38.85l154.54,423L838,301.69h39.74L704.68,778.55Z" transform="translate(0.06 -142.74)"/><path class="cls-2" d="M1113.56,790.92q-80.8,0-134.23-33.78T913.1,663.75l38-7.06q11.92,44.16,55.85,70.65t107.52,26.49q64.9,0,103.1-27.82t38.19-75.5q0-26.06-11.48-42.61t-44.82-30.25q-33.33-13.68-98.24-31.34-68-18.55-105.75-36t-53-39.3q-15.24-21.86-15.23-53.64,0-38,22.51-67.12T1012,304.78q39.74-16.32,91.84-16.33,52.54,0,94.71,17.44t68,48.57a129.65,129.65,0,0,1,29.8,71.75l-38,7.06q-8.39-49.89-51-78.81t-106.19-28.92q-59.61-.89-97.36,24.28t-37.75,65.79q0,22.51,12.81,38.63t44.59,29.37q31.8,13.25,88.31,27.37,71.54,18.12,111.49,36.65t56.07,43.27q16.13,24.74,16.12,61.37,0,64.9-48.57,101.78T1113.56,790.92Z" transform="translate(0.06 -142.74)"/><path class="cls-2" d="M1393.48,778.55V142.74h37.09V403.25h-2.65v375.3Zm204,13.25q-63.15,0-107.3-33.56t-67.33-90.73q-23.19-57.18-23.18-128.27,0-72.4,23.4-129.15t69.1-89.19q45.69-32.46,112.37-32.45,64,0,108.84,33.33t68.22,90.3q23.4,57,23.4,127.16,0,71.53-23.84,128.71t-70,90.51Q1665,791.81,1597.48,791.8Zm0-37.09q55.18,0,92.5-28.26t56.29-77.05q19-48.78,19-110.16,0-60.93-18.32-109.28t-55.42-76.39q-37.08-28-94-28-55.63,0-93.39,27.37t-57,75.73q-19.2,48.35-19.21,110.6,0,61.38,19,110.16t56.74,77.05Q1541.4,754.71,1597.48,754.71Z" transform="translate(0.06 -142.74)"/></g><path class="cls-2" d="M177.63,723.18H321.7V792.1H-.06V723.55H177.63Zm0-224.49H279.74v68.88H73v0H-.06V498.73H177.63ZM-.06,357.36V288.48H321.7v68.88H-.06Z" transform="translate(0.06 -142.74)"/></g></svg>